Jump_normalized_pl06_filtered_grf
version=1
nRows=30
nColumns=37
inDegrees=yes
endheader
time		1_ground_force_vx		1_ground_force_vy		1_ground_force_vz		1_ground_force_px		1_ground_force_py		1_ground_force_pz		1_ground_torque_x		1_ground_torque_y		1_ground_torque_z		2_ground_force_vx		2_ground_force_vy		2_ground_force_vz		2_ground_force_px		2_ground_force_py		2_ground_force_pz		2_ground_torque_x		2_ground_torque_y		2_ground_torque_z		3_ground_force_vx		3_ground_force_vy		3_ground_force_vz		3_ground_force_px		3_ground_force_py		3_ground_force_pz		3_ground_torque_x		3_ground_torque_y		3_ground_torque_z		4_ground_force_vx		4_ground_force_vy		4_ground_force_vz		4_ground_force_px		4_ground_force_py		4_ground_force_pz		4_ground_torque_x		4_ground_torque_y		4_ground_torque_z		
0.482000		0.000000		-0.000000		-0.000000		0.165178		0.000000		0.161360		-0.000000		-0.000000		0.000000		-0.000000		-0.000000		-0.000000		-0.234587		0.000000		0.187931		-0.000000		0.000000		-0.000000		-21.321723		278.288409		-146.663410		0.412635		1.262730		1.878808		1.226179		-16.003937		8.434386		43.771794		307.871336		-119.646542		-0.353707		1.255999		1.905141		2.796545		19.669651		-7.644121		
0.484500		0.000000		-0.000000		-0.000000		0.165178		0.000000		0.161360		-0.000000		-0.000000		0.000000		-0.000000		-0.000000		-0.000000		-0.234587		0.000000		0.187931		-0.000000		0.000000		-0.000000		-18.947109		262.909582		-144.628664		0.412639		1.262773		1.878783		1.080699		-14.995746		8.249280		41.810522		289.833974		-116.607599		-0.353676		1.256031		1.905078		2.652973		18.390627		-7.399018		
0.487000		0.000000		-0.000000		-0.000000		0.165178		0.000000		0.161360		-0.000000		-0.000000		0.000000		-0.000000		-0.000000		-0.000000		-0.234587		0.000000		0.187931		-0.000000		0.000000		-0.000000		-16.494193		246.995816		-141.564574		0.412649		1.262821		1.878746		0.933186		-13.974199		8.009251		39.982857		271.357596		-112.781609		-0.353650		1.256059		1.905005		2.517109		17.083237		-7.100133		
0.489500		0.000000		-0.000000		-0.000000		0.165178		0.000000		0.161360		-0.000000		-0.000000		0.000000		-0.000000		-0.000000		-0.000000		-0.234587		0.000000		0.187931		-0.000000		0.000000		-0.000000		-13.954343		230.541355		-137.439246		0.412665		1.262873		1.878695		0.783274		-12.940558		7.714627		38.197411		252.528290		-108.169849		-0.353627		1.256082		1.904922		2.383874		15.760116		-6.750805		
0.492000		0.000000		-0.000000		-0.000000		0.165178		0.000000		0.161360		-0.000000		-0.000000		0.000000		-0.000000		-0.000000		-0.000000		-0.234587		0.000000		0.187931		-0.000000		0.000000		-0.000000		-11.334696		213.573896		-132.248791		0.412685		1.262927		1.878629		0.631394		-11.897033		7.366856		36.361808		233.443752		-102.801072		-0.353608		1.256101		1.904828		2.248296		14.434118		-6.356319		
0.494500		0.000000		-0.000000		-0.000000		0.165178		0.000000		0.161360		-0.000000		-0.000000		0.000000		-0.000000		-0.000000		-0.000000		-0.234587		0.000000		0.187931		-0.000000		0.000000		-0.000000		-8.658176		196.157887		-126.021790		0.412705		1.262984		1.878547		0.478772		-10.846961		6.968639		34.391650		214.211548		-96.731550		-0.353593		1.256116		1.904723		2.106044		13.117685		-5.923556		
0.497000		0.000000		-0.000000		-0.000000		0.165178		0.000000		0.161360		-0.000000		-0.000000		0.000000		-0.000000		-0.000000		-0.000000		-0.234587		0.000000		0.187931		-0.000000		0.000000		-0.000000		-5.962416		178.396035		-118.822012		0.412725		1.263040		1.878448		0.327371		-9.794974		6.524016		32.219069		194.948315		-90.044085		-0.353579		1.256129		1.904606		1.953874		11.822329		-5.460580		
0.499500		0.000000		-0.000000		-0.000000		0.165178		0.000000		0.161360		-0.000000		-0.000000		0.000000		-0.000000		0.000000		-0.000000		-0.234587		0.000000		0.187931		-0.000000		0.000000		0.000000		-3.297690		160.428841		-110.749162		0.412742		1.263095		1.878330		0.179801		-8.747116		6.038414		29.799918		175.779836		-82.845927		-0.353568		1.256140		1.904478		1.789947		10.558301		-4.976181		
0.502000		0.000000		-0.000000		-0.000000		0.165178		0.000000		0.161360		-0.000000		-0.000000		0.000000		0.000000		0.000000		0.000000		-0.234587		0.000000		0.187931		0.000000		-0.000000		0.000000		-0.723961		142.431990		-101.937497		0.412755		1.263146		1.878191		0.039193		-7.710903		5.518635		27.118790		156.841649		-75.265515		-0.353557		1.256150		1.904338		1.613978		9.334449		-4.479436		
0.504500		0.000000		0.000000		0.000000		0.165178		0.000000		0.161360		0.000000		0.000000		-0.000000		0.000000		0.000000		0.000000		-0.234587		0.000000		0.187931		0.000000		-0.000000		0.000000		1.692856		124.611554		-92.552297		0.412761		1.263190		1.878032		-0.090956		-6.695298		4.972775		24.191207		138.279791		-67.448060		-0.353547		1.256160		1.904188		1.427240		8.158273		-3.979321		
0.507000		-0.000000		0.000000		0.000000		0.165178		0.000000		0.161360		0.000000		0.000000		-0.000000		0.000000		0.000000		0.000000		-0.234587		0.000000		0.187931		0.000000		-0.000000		0.000000		3.885313		107.196987		-82.784334		0.412759		1.263226		1.877852		0.264175		-18.582256		-12.235281		21.062732		120.251093		-59.549997		-0.353538		1.256169		1.904027		1.232423		7.036133		-3.484390		
0.509500		-0.000000		0.000000		0.000000		0.165178		0.000000		0.161360		0.000000		0.000000		-0.000000		0.000000		0.000000		0.000000		-0.234587		0.000000		0.187931		0.000000		-0.000000		0.000000		5.789373		90.431990		-72.842586		0.412750		1.263251		1.877651		0.217333		-16.095192		-10.180058		17.805048		102.922328		-51.732475		-0.353528		1.256177		1.903857		1.033399		5.973575		-3.002534		
0.512000		-0.000000		0.000000		0.000000		0.165178		0.000000		0.161360		0.000000		0.000000		-0.000000		0.000000		0.000000		0.000000		-0.234587		0.000000		0.187931		0.000000		-0.000000		0.000000		7.349506		74.563365		-62.945496		0.412735		1.263263		1.877430		0.175181		-13.668093		-8.254379		14.509429		86.467450		-44.154120		-0.353518		1.256184		1.903679		0.834927		4.975663		-2.540795		
0.514500		-0.000000		0.000000		0.000000		0.165178		0.000000		0.161360		0.000000		0.000000		-0.000000		0.000000		0.000000		0.000000		-0.234587		0.000000		0.187931		0.000000		-0.000000		0.000000		8.523458		59.828154		-53.311090		0.412715		1.263262		1.877192		0.137441		-11.347400		-6.485920		11.278275		71.062334		-36.963534		-0.353509		1.256188		1.903496		0.642334		4.047226		-2.105191		
0.517000		-0.000000		0.000000		0.000000		0.165178		0.000000		0.161360		0.000000		0.000000		-0.000000		0.000000		0.000000		0.000000		-0.234587		0.000000		0.187931		0.000000		-0.000000		0.000000		9.286265		46.439614		-44.146427		0.412691		1.263246		1.876939		-0.462864		-2.314733		2.200432		8.215608		56.876835		-30.292059		-0.353501		1.256189		1.903309		0.461202		3.192914		-1.700516		
0.519500		-0.000000		0.000000		0.000000		0.165178		0.000000		0.161360		0.000000		0.000000		-0.000000		0.000000		0.000000		0.000000		-0.234587		0.000000		0.187931		0.000000		-0.000000		0.000000		9.633074		34.572981		-35.637068		0.412667		1.263218		1.876676		-0.462662		-1.660489		1.711596		5.417602		44.064461		-24.247350		-0.353494		1.256185		1.903119		0.297167		2.417026		-1.330017		
0.522000		-0.000000		0.000000		0.000000		0.165178		0.000000		0.161360		0.000000		0.000000		-0.000000		0.000000		0.000000		0.000000		-0.234587		0.000000		0.187931		0.000000		-0.000000		0.000000		9.580471		24.352425		-27.937389		0.412644		1.263177		1.876406		-0.434707		-1.104975		1.267640		2.964167		32.750656		-18.908297		-0.353490		1.256175		1.902928		1.080782		4.582400		4.102666		
0.524500		-0.000000		0.000000		0.000000		0.165178		0.000000		0.161360		0.000000		0.000000		-0.000000		0.000000		-0.000000		0.000000		-0.234587		0.000000		0.187931		-0.000000		-0.000000		-0.000000		9.166080		15.840808		-21.162548		0.412626		1.263127		1.876134		-0.379916		-0.656571		0.877146		0.912376		23.021159		-14.321820		-0.353488		1.256159		1.902738		0.844284		3.355593		2.961893		
0.527000		-0.000000		0.000000		0.000000		0.165178		0.000000		0.161360		0.000000		0.000000		-0.000000		-0.000000		-0.000000		-0.000000		-0.234587		0.000000		0.187931		-0.000000		0.000000		-0.000000		8.446338		9.033827		-15.382925		0.412614		1.263068		1.875863		-0.302022		-0.323029		0.550058		-0.707711		14.912258		-10.501890		-0.353488		1.256137		1.902549		0.629850		2.326080		2.003206		
0.529500		-0.000000		-0.000000		-0.000000		0.165178		0.000000		0.161360		-0.000000		-0.000000		0.000000		-0.000000		-0.000000		-0.000000		-0.234587		0.000000		0.187931		-0.000000		0.000000		-0.000000		7.492505		3.859688		-10.621702		0.412609		1.263004		1.875599		-0.213158		-0.109806		0.302182		-1.894424		8.404670		-7.430918		-0.353492		1.256108		1.902364		0.442318		1.490694		1.227434		
0.532000		0.000000		-0.000000		-0.000000		0.165178		0.000000		0.161360		-0.000000		-0.000000		0.000000		-0.000000		-0.000000		-0.000000		-0.234587		0.000000		0.187931		-0.000000		0.000000		-0.000000		6.385183		0.184687		-6.855941		0.412610		1.262937		1.875344		-0.145690		-0.004214		0.156431		-2.672946		3.422327		-5.063371		-0.353498		1.256075		1.902182		0.284978		0.839825		0.628571		
0.534500		0.000000		-0.000000		-0.000000		0.165178		0.000000		0.161360		-0.000000		-0.000000		0.000000		-0.000000		-0.000000		-0.000000		-0.234587		0.000000		0.187931		-0.000000		0.000000		-0.000000		5.207876		-2.175746		-4.021025		0.412618		1.262869		1.875100		-0.003560		-0.288778		0.476146		-3.091095		-0.163455		-3.331091		-0.353505		1.256037		1.902004		0.159317		0.358073		0.193955		
0.537000		0.000000		-0.000000		-0.000000		0.165178		0.000000		0.161360		-0.000000		-0.000000		0.000000		-0.000000		-0.000000		-0.000000		-0.234587		0.000000		0.187931		-0.000000		0.000000		-0.000000		4.040306		-3.441845		-2.017942		0.412632		1.262804		1.874867		-0.000959		0.078909		0.560608		-3.213008		-2.524768		-2.149646		-0.353514		1.255997		1.901830		0.064970		0.025327		-0.094831		
0.539500		0.000000		-0.000000		-0.000000		0.165178		0.000000		0.161360		-0.000000		-0.000000		0.000000		-0.000000		-0.000000		-0.000000		-0.234587		0.000000		0.187931		-0.000000		0.000000		-0.000000		2.952228		-3.851961		-0.722678		0.412649		1.262744		1.874648		0.004586		0.288283		0.551708		-3.111714		-3.864048		-1.424990		-0.353524		1.255955		1.901661		-0.000121		-0.181813		-0.260485		
0.542000		0.000000		-0.000000		-0.000000		0.165178		0.000000		0.161360		-0.000000		-0.000000		0.000000		-0.000000		-0.000000		-0.000000		-0.234587		0.000000		0.187931		-0.000000		0.000000		-0.000000		1.998444		-3.644763		0.003134		0.412669		1.262689		1.874440		0.012059		0.374306		0.479620		-2.861746		-4.398848		-1.059886		-0.353534		1.255915		1.901496		-0.039396		-0.288425		-0.328154		
0.544500		0.000000		-0.000000		-0.000000		0.165178		0.000000		0.161360		-0.000000		-0.000000		0.000000		-0.000000		-0.000000		-0.000000		-0.234587		0.000000		0.187931		-0.000000		0.000000		-0.000000		1.215632		-3.043184		0.301277		0.412689		1.262642		1.874242		0.020440		0.371510		0.371626		-2.532728		-4.346364		-0.959693		-0.353543		1.255876		1.901336		-0.057253		-0.319615		-0.323481		
0.547000		0.000000		-0.000000		-0.000000		0.165178		0.000000		0.161360		-0.000000		-0.000000		0.000000		-0.000000		-0.000000		-0.000000		-0.234587		0.000000		0.187931		-0.000000		0.000000		-0.000000		0.621349		-2.241692		0.306761		0.412709		1.262602		1.874054		0.028823		0.311759		0.250671		-2.184427		-3.909500		-1.037269		-0.353551		1.255841		1.901180		-0.058578		-0.299000		-0.270803		
0.549500		0.000000		-0.000000		-0.000000		0.165178		0.000000		0.161360		-0.000000		-0.000000		0.000000		-0.000000		0.000000		0.000000		-0.234587		0.000000		0.187931		0.000000		-0.000000		0.000000		0.215223		-1.397805		0.139335		0.412727		1.262570		1.873874		0.036491		0.222526		0.134500		-1.863473		-3.265759		-1.216765		-0.353557		1.255811		1.901028		-0.048301		-0.247471		-0.191673		
0.552000		0.000000		0.000000		0.000000		0.165178		0.000000		0.161360		-0.000000		-0.000000		-0.000000		0.000000		0.000000		0.000000		-0.234587		0.000000		0.187931		0.000000		-0.000000		0.000000		-0.018058		-0.628099		-0.102613		0.412743		1.262546		1.873701		0.042951		0.125782		0.035411		-1.601778		-2.559726		-1.436094		-0.353562		1.255785		1.900880		-0.031010		-0.182333		-0.103835		
0.554500		-0.000000		0.000000		0.000000		0.165178		0.000000		0.161360		0.000000		0.000000		-0.000000		0.000000		0.000000		0.000000		-0.234587		0.000000		0.187931		0.000000		-0.000000		0.000000		-0.104641		-0.008353		-0.345441		0.412757		1.262529		1.873534		0.047938		0.037530		-0.039490		-1.416527		-1.899360		-1.648024		-0.353565		1.255763		1.900738		-0.010652		-0.116851		-0.020683		
